{
    "asset": {
        "generator": "FBX2glTF v0.13.1",
        "version": "2.0"
    },
    "scene": 0,
    "buffers": [
        {
            "byteLength": 845012,
            "uri": "data:application/octet-stream;base64,"
        }
    ],
    "bufferViews": [
        {
            "buffer": 0,
            "byteLength": 4,
            "byteOffset": 0
        },
        {
            "buffer": 0,
            "byteLength": 8,
            "byteOffset": 4
        },
        {
            "buffer": 0,
            "byteLength": 82332,
            "byteOffset": 12,
            "target": 34963
        },
        {
            "buffer": 0,
            "byteLength": 89556,
            "byteOffset": 82344,
            "target": 34962
        },
        {
            "buffer": 0,
            "byteLength": 89556,
            "byteOffset": 171900,
            "target": 34962
        },
        {
            "buffer": 0,
            "byteLength": 119408,
            "byteOffset": 261456,
            "target": 34962
        },
        {
            "buffer": 0,
            "byteLength": 59704,
            "byteOffset": 380864,
            "target": 34962
        },
        {
            "buffer": 0,
            "byteLength": 59704,
            "byteOffset": 440568,
            "target": 34962
        },
        {
            "buffer": 0,
            "byteLength": 59704,
            "byteOffset": 500272,
            "target": 34962
        },
        {
            "buffer": 0,
            "byteLength": 119408,
            "byteOffset": 559976,
            "target": 34962
        },
        {
            "buffer": 0,
            "byteLength": 119408,
            "byteOffset": 679384,
            "target": 34962
        },
        {
            "buffer": 0,
            "byteLength": 3756,
            "byteOffset": 798792
        },
        {
            "buffer": 0,
            "byteLength": 22536,
            "byteOffset": 802548
        },
        {
            "buffer": 0,
            "byteLength": 2664,
            "byteOffset": 825084
        },
        {
            "buffer": 0,
            "byteLength": 15984,
            "byteOffset": 827748
        },
        {
            "buffer": 0,
            "byteLength": 1280,
            "byteOffset": 843732
        }
    ],
    "scenes": [
        {
            "name": "Root Scene",
            "nodes": [
                0
            ]
        }
    ],
    "accessors": [
        {
            "componentType": 5126,
            "type": "SCALAR",
            "count": 1,
            "bufferView": 0,
            "byteOffset": 0,
            "min": [
                0.0
            ],
            "max": [
                0.0
            ]
        },
        {
            "componentType": 5126,
            "type": "SCALAR",
            "count": 2,
            "bufferView": 1,
            "byteOffset": 0
        },
        {
            "componentType": 5123,
            "type": "SCALAR",
            "count": 41166,
            "bufferView": 2,
            "byteOffset": 0
        },
        {
            "componentType": 5126,
            "type": "VEC3",
            "count": 7463,
            "bufferView": 3,
            "byteOffset": 0,
            "min": [
                -0.240050747990608,
                1.49257361888885,
                0.268500536680222
            ],
            "max": [
                -0.137036204338074,
                1.72875273227692,
                0.40735924243927
            ]
        },
        {
            "componentType": 5126,
            "type": "VEC3",
            "count": 7463,
            "bufferView": 4,
            "byteOffset": 0
        },
        {
            "componentType": 5126,
            "type": "VEC4",
            "count": 7463,
            "bufferView": 5,
            "byteOffset": 0
        },
        {
            "componentType": 5126,
            "type": "VEC2",
            "count": 7463,
            "bufferView": 6,
            "byteOffset": 0
        },
        {
            "componentType": 5123,
            "type": "VEC4",
            "count": 7463,
            "bufferView": 7,
            "byteOffset": 0
        },
        {
            "componentType": 5123,
            "type": "VEC4",
            "count": 7463,
            "bufferView": 8,
            "byteOffset": 0
        },
        {
            "componentType": 5126,
            "type": "VEC4",
            "count": 7463,
            "bufferView": 9,
            "byteOffset": 0
        },
        {
            "componentType": 5126,
            "type": "VEC4",
            "count": 7463,
            "bufferView": 10,
            "byteOffset": 0
        },
        {
            "componentType": 5126,
            "type": "VEC3",
            "count": 7463,
            "min": [
                -0.00962097104638815,
                -0.00286743161268532,
                -0.00265727983787656
            ],
            "max": [
                0.00431308755651116,
                0.0059103392995894,
                0.0048093032091856
            ],
            "sparse": {
                "count": 1878,
                "indices": {
                    "bufferView": 11,
                    "byteOffset": 0,
                    "componentType": 5123
                },
                "values": {
                    "bufferView": 12,
                    "byteOffset": 0
                }
            }
        },
        {
            "componentType": 5126,
            "type": "VEC3",
            "count": 7463,
            "min": [
                -0.00125442503485829,
                -0.00293411244638264,
                -0.00131675717420876
            ],
            "max": [
                0.00651653297245502,
                0.00482360832393169,
                0.00668632471933961
            ],
            "sparse": {
                "count": 1332,
                "indices": {
                    "bufferView": 13,
                    "byteOffset": 0,
                    "componentType": 5123
                },
                "values": {
                    "bufferView": 14,
                    "byteOffset": 0
                }
            }
        },
        {
            "componentType": 5126,
            "type": "MAT4",
            "count": 20,
            "bufferView": 15,
            "byteOffset": 0
        }
    ],
    "images": [
        {
            "name": "hand_texture.png",
            "uri": "hand_texture.png"
        }
    ],
    "samplers": [
        {}
    ],
    "textures": [
        {
            "name": "Dark",
            "sampler": 0,
            "source": 0
        }
    ],
    "materials": [
        {
            "name": "skin",
            "alphaMode": "OPAQUE",
            "doubleSided": false,
            "extras": {
                "fromFBX": {
                    "shadingModel": "Phong",
                    "isTruePBR": false
                }
            },
            "pbrMetallicRoughness": {
                "baseColorTexture": {
                    "index": 0,
                    "texCoord": 0
                },
                "baseColorFactor": [
                    1.0,
                    1.0,
                    1.0,
                    1.0
                ],
                "metallicFactor": 0.400000005960464,
                "roughnessFactor": 0.330173701047897
            }
        }
    ],
    "meshes": [
        {
            "name": "R_Hand",
            "primitives": [
                {
                    "material": 0,
                    "mode": 4,
                    "attributes": {
                        "COLOR_0": 5,
                        "JOINTS_0": 7,
                        "JOINTS_1": 8,
                        "NORMAL": 4,
                        "POSITION": 3,
                        "TEXCOORD_0": 6,
                        "WEIGHTS_0": 9,
                        "WEIGHTS_1": 10
                    },
                    "indices": 2,
                    "targets": [
                        {
                            "POSITION": 11
                        },
                        {
                            "POSITION": 12
                        }
                    ]
                }
            ],
            "weights": [
                0.0,
                0.0
            ],
            "extras": {
                "targetNames": [
                    "",
                    ""
                ]
            }
        }
    ],
    "skins": [
        {
            "joints": [
                1,
                2,
                3,
                4,
                5,
                6,
                7,
                8,
                9,
                10,
                11,
                12,
                13,
                14,
                15,
                16,
                17,
                18,
                19,
                20
            ],
            "inverseBindMatrices": 13,
            "skeleton": 1
        },
        {
            "joints": [
                1,
                2,
                3,
                4,
                5,
                6,
                7,
                8,
                9,
                10,
                11,
                12,
                13,
                14,
                15,
                16,
                17,
                18,
                19,
                20
            ]
        }
    ],
    "animations": [
        {
            "name": "Take 001",
            "channels": [
                {
                    "sampler": 0,
                    "target": {
                        "node": 21,
                        "path": "weights"
                    }
                }
            ],
            "samplers": [
                {
                    "input": 0,
                    "interpolation": "LINEAR",
                    "output": 1
                }
            ]
        }
    ],
    "nodes": [
        {
            "name": "RootNode",
            "translation": [
                0.0,
                0.0,
                0.0
            ],
            "rotation": [
                0.0,
                0.0,
                0.0,
                1.0
            ],
            "scale": [
                1.0,
                1.0,
                1.0
            ],
            "children": [
                1,
                21
            ]
        },
        {
            "name": "hand_r",
            "translation": [
                0.0799999982118607,
                0.0,
                0.0
            ],
            "rotation": [
                -0.44595268368721,
                0.540985524654388,
                -0.517871975898743,
                0.490172922611237
            ],
            "scale": [
                1.0,
                1.0,
                1.0
            ],
            "children": [
                2,
                5,
                9,
                13,
                17
            ]
        },
        {
            "name": "thumb_01_r",
            "translation": [
                -0.0434258580207825,
                -0.0229618493467569,
                0.0286406483501196
            ],
            "rotation": [
                0.543512225151062,
                0.232955664396286,
                -0.0853900834918022,
                0.801894426345825
            ],
            "scale": [
                1.0,
                1.0,
                1.0
            ],
            "children": [
                3
            ]
        },
        {
            "name": "thumb_02_r",
            "translation": [
                -0.0394579693675041,
                1.13444400540175e-06,
                5.42911891443509e-07
            ],
            "rotation": [
                -0.0117802442982793,
                -0.169401317834854,
                0.280491858720779,
                0.944716215133667
            ],
            "scale": [
                1.0,
                1.0,
                1.0
            ],
            "children": [
                4
            ]
        },
        {
            "name": "thumb_03_r",
            "translation": [
                -0.0374683402478695,
                -1.77635679969558e-17,
                -3.46399497175298e-06
            ],
            "rotation": [
                0.0449525117874146,
                0.00351887242868543,
                -0.0882355123758316,
                0.995078563690186
            ],
            "scale": [
                1.0,
                1.0,
                1.0
            ]
        },
        {
            "name": "pinky_00_r",
            "translation": [
                -0.0412852615118027,
                -0.0120543595403433,
                -0.0227013491094112
            ],
            "rotation": [
                -0.222107663750648,
                -0.148218378424644,
                0.0613247230648994,
                0.961737394332886
            ],
            "scale": [
                1.0,
                1.0,
                1.0
            ],
            "children": [
                6
            ]
        },
        {
            "name": "pinky_01_r",
            "translation": [
                -0.053703349083662,
                -4.91676876990255e-09,
                2.03203196491586e-08
            ],
            "rotation": [
                0.12771563231945,
                0.12789598107338,
                -0.0710902512073517,
                0.980957448482513
            ],
            "scale": [
                1.0,
                1.0,
                1.0
            ],
            "children": [
                7
            ]
        },
        {
            "name": "pinky_02_r",
            "translation": [
                -0.0286380909383297,
                -7.33928061436018e-07,
                -5.84989301444239e-08
            ],
            "rotation": [
                6.69310214797077e-17,
                9.03446863553764e-17,
                0.0274858921766281,
                0.999622166156769
            ],
            "scale": [
                1.0,
                1.0,
                1.0
            ],
            "children": [
                8
            ]
        },
        {
            "name": "pinky_03_r",
            "translation": [
                -0.0215025208890438,
                3.10368181999365e-06,
                -3.80717608550185e-07
            ],
            "rotation": [
                6.92543997668018e-17,
                1.45342962445794e-17,
                0.00947024207562208,
                0.999955177307129
            ],
            "scale": [
                1.0,
                1.0,
                1.0
            ]
        },
        {
            "name": "ring_00_r",
            "translation": [
                -0.043767437338829,
                -0.00785551499575377,
                -0.0113331601023674
            ],
            "rotation": [
                -0.120852924883366,
                -0.0891745686531067,
                0.0525030717253685,
                0.987261831760406
            ],
            "scale": [
                1.0,
                1.0,
                1.0
            ],
            "children": [
                10
            ]
        },
        {
            "name": "ring_01_r",
            "translation": [
                -0.0582081191241741,
                0.000442576594650745,
                0.000660127028822899
            ],
            "rotation": [
                0.0270852074027061,
                0.043437335640192,
                -0.0314090922474861,
                0.998194873332977
            ],
            "scale": [
                1.0,
                1.0,
                1.0
            ],
            "children": [
                11
            ]
        },
        {
            "name": "ring_02_r",
            "translation": [
                -0.0442984998226166,
                7.73128249420552e-07,
                -2.14204092685577e-07
            ],
            "rotation": [
                9.82244717362831e-19,
                -2.94739374590894e-17,
                0.0333073846995831,
                0.999445140361786
            ],
            "scale": [
                1.0,
                1.0,
                1.0
            ],
            "children": [
                12
            ]
        },
        {
            "name": "ring_03_r",
            "translation": [
                -0.031670980155468,
                7.33598540136882e-07,
                -3.33634169180641e-08
            ],
            "rotation": [
                4.19319049006326e-19,
                -1.73421657969743e-17,
                0.0241720974445343,
                0.999707818031311
            ],
            "scale": [
                1.0,
                1.0,
                1.0
            ]
        },
        {
            "name": "middle_00_r",
            "translation": [
                -0.0450736880302429,
                -0.00542115978896618,
                0.00148009485565126
            ],
            "rotation": [
                -0.0711154341697693,
                -0.0326983742415905,
                0.0589138381183147,
                0.995189726352692
            ],
            "scale": [
                1.0,
                1.0,
                1.0
            ],
            "children": [
                14
            ]
        },
        {
            "name": "middle_01_r",
            "translation": [
                -0.063660092651844,
                0.000462043390143663,
                -8.36938634165563e-05
            ],
            "rotation": [
                -0.00117668008897454,
                -0.00918764900416136,
                -0.0470250621438026,
                0.998850762844086
            ],
            "scale": [
                1.0,
                1.0,
                1.0
            ],
            "children": [
                15
            ]
        },
        {
            "name": "middle_02_r",
            "translation": [
                -0.0494987554848194,
                -1.38637994950841e-06,
                8.04532263032343e-08
            ],
            "rotation": [
                -0.0197258833795786,
                -0.0181453432887793,
                0.0584512017667294,
                0.997930407524109
            ],
            "scale": [
                1.0,
                1.0,
                1.0
            ],
            "children": [
                16
            ]
        },
        {
            "name": "middle_03_r",
            "translation": [
                -0.0322826690971851,
                2.98777990792587e-07,
                2.55308592045367e-08
            ],
            "rotation": [
                -0.00268889265134931,
                -0.00505574932321906,
                -0.014515676535666,
                0.999878227710724
            ],
            "scale": [
                1.0,
                1.0,
                1.0
            ]
        },
        {
            "name": "index_00_r",
            "translation": [
                -0.0433508306741714,
                -0.00691144075244665,
                0.0159831698983908
            ],
            "rotation": [
                -0.000458826165413484,
                0.033654972910881,
                0.0301126930862665,
                0.998979687690735
            ],
            "scale": [
                1.0,
                1.0,
                1.0
            ],
            "children": [
                18
            ]
        },
        {
            "name": "index_01_r",
            "translation": [
                -0.0650230646133423,
                7.57615925977007e-05,
                -4.0653958421899e-05
            ],
            "rotation": [
                -0.0110802846029401,
                -0.110579773783684,
                0.00982234627008438,
                0.993756949901581
            ],
            "scale": [
                1.0,
                1.0,
                1.0
            ],
            "children": [
                19
            ]
        },
        {
            "name": "index_02_r",
            "translation": [
                -0.0491621680557728,
                9.62380681812647e-07,
                -7.40194366244395e-07
            ],
            "rotation": [
                -0.0185799766331911,
                -0.00937577430158854,
                0.0196594037115574,
                0.99959009885788
            ],
            "scale": [
                1.0,
                1.0,
                1.0
            ],
            "children": [
                20
            ]
        },
        {
            "name": "index_03_r",
            "translation": [
                -0.0263941399753094,
                1.22387007195357e-06,
                -1.26158397506515e-07
            ],
            "rotation": [
                -0.0125619163736701,
                -0.00128159380983561,
                -0.00452493317425251,
                0.999910056591034
            ],
            "scale": [
                1.0,
                1.0,
                1.0
            ]
        },
        {
            "name": "R_Hand",
            "translation": [
                0.191930010914803,
                -1.54602992534637,
                -0.3091099858284
            ],
            "rotation": [
                0.0,
                0.0,
                0.0,
                1.0
            ],
            "scale": [
                1.0,
                1.0,
                1.0
            ],
            "mesh": 0,
            "skin": 0
        }
    ]
}